<svg width="91" height="62" viewBox="0 0 91 62" fill="none" xmlns="http://www.w3.org/2000/svg">
<path d="M32.596 21.54V41H29.404V27.672L23.468 41H21.256L15.292 27.672V41H12.1V21.54H15.544L22.376 36.8L29.18 21.54H32.596ZM39.9554 21.54V33.944C39.9554 35.4187 40.3381 36.5293 41.1034 37.276C41.8874 38.0227 42.9701 38.396 44.3514 38.396C45.7514 38.396 46.8341 38.0227 47.5994 37.276C48.3834 36.5293 48.7754 35.4187 48.7754 33.944V21.54H51.9674V33.888C51.9674 35.4747 51.6221 36.8187 50.9314 37.92C50.2407 39.0213 49.3167 39.8427 48.1594 40.384C47.0021 40.9253 45.7234 41.196 44.3234 41.196C42.9234 41.196 41.6447 40.9253 40.4874 40.384C39.3487 39.8427 38.4434 39.0213 37.7714 37.92C37.0994 36.8187 36.7634 35.4747 36.7634 33.888V21.54H39.9554ZM67.8554 37.024H59.7074L58.3074 41H54.9754L61.9474 21.512H65.6434L72.6154 41H69.2554L67.8554 37.024ZM66.9594 34.42L63.7954 25.376L60.6034 34.42H66.9594ZM78.8389 21.54V41H75.6469V21.54H78.8389Z" fill="#FC552F"/>
</svg>
