<svg width="55" height="55" viewBox="0 0 55 55" fill="none" xmlns="http://www.w3.org/2000/svg">
<rect width="55" height="55" rx="27.5" fill="#FC552F"/>
<path d="M25.3227 26.2919L27.2022 24.5699C27.7161 24.0981 28.0773 23.4836 28.2394 22.805C28.4016 22.1265 28.3573 21.415 28.1122 20.7619L27.3107 18.6216C27.0112 17.8226 26.4184 17.1678 25.653 16.7907C24.8876 16.4135 24.0072 16.3423 23.1912 16.5916C20.1882 17.5104 17.8799 20.3016 18.5904 23.6161C19.0577 25.7966 19.9519 28.5336 21.6459 31.4456C23.3434 34.3646 25.2824 36.5206 26.9449 38.0361C29.4544 40.3199 33.0419 39.7494 35.3502 37.5969C35.9689 37.02 36.3444 36.2288 36.4 35.3847C36.4556 34.5406 36.1872 33.707 35.6494 33.0539L34.1794 31.2689C33.7361 30.7291 33.1413 30.3343 32.4718 30.1354C31.8022 29.9364 31.0884 29.9423 30.4222 30.1524L27.9932 30.9171C27.3659 30.2698 26.8162 29.5515 26.3552 28.7769C25.9102 27.9935 25.5634 27.1583 25.3227 26.2901V26.2919Z" fill="white"/>
</svg>
